<?xml version="1.0" encoding="utf-8"?>
<!-- Generator: Adobe Illustrator 28.0.0, SVG Export Plug-In . SVG Version: 6.00 Build 0)  -->
<svg version="1.1" id="Laag_1" xmlns="http://www.w3.org/2000/svg" xmlns:xlink="http://www.w3.org/1999/xlink" x="0px" y="0px"
	 viewBox="0 0 400.3 400.3" style="enable-background:new 0 0 400.3 400.3;" xml:space="preserve">
<style type="text/css">
	.st0{fill:#8C401E;}
	.st1{fill:#FFFFFF;}
	.st2{fill:#D54E00;}
	.st3{fill:#F7031E;}
	.st4{fill:#F77A1E;}
	.st5{fill:#F7B41E;}
	.st6{fill:#F7931E;}
	.st7{font-family:'MyriadPro-Regular';}
	.st8{font-size:23.0959px;}
	.st9{font-size:10px;}
</style>
<g>
	<g>
		<path class="st0" d="M61.4,58.7c19.5-19.1,42.1-33.7,67.3-43.4l14.8,39.5c-19.6,7.6-37.2,19-52.3,33.8L61.4,58.7z"/>
		<path class="st1" d="M127.6,17.7l13.5,35.9c-18.5,7.5-35.3,18.3-49.8,32.2L64.1,58.7C82.6,40.9,103.9,27.1,127.6,17.7 M129.8,12.7
			c-27,10.1-51.2,25.9-71.2,45.9l32.6,32.6c15.4-15.4,34-27.6,54.8-35.4L129.8,12.7L129.8,12.7z"/>
	</g>
	<g>
		<path class="st2" d="M123.2,382.9c-35.2-14.8-65.2-39.4-86.8-71c-22.5-33-34.5-71.6-34.5-111.7c0-52.3,20.1-101.5,56.7-138.8
			l29.8,29.8c-28.6,29.3-44.4,67.9-44.4,108.9c0,31.6,9.4,62,27.1,87.9c17,24.8,40.4,44,68,55.7L123.2,382.9z"/>
		<path class="st1" d="M58.7,64.1l27.1,27.1c-28.2,29.5-43.6,68-43.6,108.9c0,32,9.5,62.7,27.5,89c16.8,24.6,39.9,43.8,67.1,55.7
			l-14.5,35.5C88.1,365.6,59,341.6,38,310.8C15.6,278.1,3.8,239.9,3.8,200.2c0-26.5,5.2-52.2,15.4-76.4
			C28.7,101.6,41.9,81.5,58.7,64.1 M58.7,58.7C22.4,94.9,0,144.9,0,200.2c0,83.7,51.4,155.4,124.3,185.3l17.5-42.6
			C85.6,319.8,46,264.6,46,200.2c0-42.6,17.3-81.1,45.2-108.9L58.7,58.7L58.7,58.7z"/>
	</g>
	<g>
		<path class="st3" d="M257.5,55c-18.3-7.2-37.6-10.9-57.4-10.9c-18.2,0-36,3.1-53,9.3l-14.8-39.5C154,5.9,176.8,1.9,200.2,1.9
			c25.3,0,50,4.7,73.4,14L257.5,55z"/>
		<path class="st1" d="M200.2,3.8c24.4,0,48.3,4.4,70.9,13.2l-14.5,35.5c-18-6.9-36.9-10.4-56.3-10.4c-17.8,0-35.2,2.9-51.9,8.8
			L134.8,15C155.7,7.6,177.7,3.8,200.2,3.8 M200.2,0c-24.8,0-48.5,4.5-70.4,12.7L146,55.9c16.9-6.3,35.1-9.8,54.2-9.8
			c20.7,0,40.4,4.1,58.4,11.5L276,14.9C252.6,5.3,227,0,200.2,0L200.2,0z"/>
	</g>
	<g>
		<path class="st4" d="M311.9,309.1c28.6-29.3,44.4-67.9,44.4-109c0-10.9-1.1-21.8-3.4-32.5l41.2-9.3c2.9,13.7,4.4,27.7,4.4,41.7
			c0,52.3-20.1,101.5-56.7,138.8L311.9,309.1z"/>
		<path class="st1" d="M392.5,160.7c2.6,13,4,26.2,4,39.4c0,26.5-5.2,52.2-15.4,76.4c-9.4,22.2-22.6,42.2-39.4,59.7l-27.1-27.1
			c28.1-29.5,43.6-68,43.6-108.9c0-10.4-1-20.8-3.1-31L392.5,160.7 M395.4,156.1l-44.9,10.1c2.5,10.9,3.8,22.3,3.8,33.9
			c0,42.6-17.3,81.1-45.1,109l32.6,32.6c36.2-36.2,58.6-86.3,58.6-141.5C400.3,185,398.6,170.3,395.4,156.1L395.4,156.1z"/>
	</g>
	<g>
		<path d="M352,163.9c-11.4-48.1-45.2-88.1-90.9-107.5l16-39.1c58.4,24.6,101.6,75.7,116,137.2L352,163.9z"/>
		<path class="st1" d="M278.1,20c56.3,24.4,98.1,73.8,112.7,133.3l-37.4,8.4c-11.9-47.3-45.1-86.5-89.8-106.2L278.1,20 M276,14.9
			l-17.5,42.6c46,18.9,80.8,59.3,91.9,108.7l44.9-10.1C381,91.9,335.8,39.4,276,14.9L276,14.9z"/>
	</g>
	<g>
		<path class="st5" d="M200.2,398.4c-25.3,0-50-4.7-73.4-14l16-39.1c18.3,7.2,37.6,10.9,57.4,10.9c41,0,79.7-15.7,109-44.4
			l29.8,29.8C301.7,378.3,252.5,398.4,200.2,398.4z"/>
		<path class="st1" d="M309.1,314.6l27.1,27.1c-17.4,16.7-37.5,30-59.7,39.4c-24.2,10.2-49.9,15.4-76.4,15.4
			c-24.4,0-48.3-4.4-70.9-13.2l14.5-35.5c18,6.9,36.9,10.4,56.3,10.4C241.1,358.1,279.6,342.7,309.1,314.6 M309.1,309.1
			c-27.9,27.9-66.4,45.1-109,45.1c-20.7,0-40.4-4.1-58.4-11.5l-17.5,42.6c23.4,9.6,49,14.9,75.9,14.9c55.3,0,105.3-22.4,141.5-58.6
			L309.1,309.1L309.1,309.1z"/>
	</g>
	<g>
		<polygon class="st6" points="200.2,200.2 200.2,200.2 200.2,200.2 		"/>
		<rect x="200.2" y="200.2" class="st1" width="0" height="0"/>
	</g>
	<g>
		<path class="st6" d="M342.9,168c-10.5-46.9-43.6-85.3-87.3-103.2c-17.1-7-35.8-10.9-55.4-10.9c-18.1,0-35.4,3.3-51.4,9.3
			c-19.7,7.4-37.4,18.9-52,33.6c-26.5,26.5-42.9,63-42.9,103.4c0,61.2,37.5,113.5,90.8,135.4c17.1,7,35.8,10.9,55.4,10.9
			c40.4,0,77-16.4,103.4-42.8c26.5-26.5,42.8-63,42.8-103.4C346.4,189.1,345.2,178.3,342.9,168z M200.2,200.2L200.2,200.2
			L200.2,200.2L200.2,200.2z"/>
	</g>
	<text transform="matrix(1 0 0 1 164.5341 195.1879)"><tspan x="0" y="0" class="st1 st7 st8">Energie  </tspan><tspan x="-2.7" y="27.7" class="st1 st7 st8">bronnen</tspan></text>
	<text transform="matrix(1 0 0 1 320.3105 87.3622)" class="st1 st7 st9">appel</text>
	<text transform="matrix(1 0 0 1 360.747 249.0814)" class="st1 st7 st9">peer</text>
	<text transform="matrix(1 0 0 1 225.2968 376.3949)" class="st1 st7 st9">vijg</text>
	<text transform="matrix(1 0 0 1 10.2451 234.3597)" class="st1 st7 st9">banaan</text>
	<text transform="matrix(1 0 0 1 87.4257 58.6552)" class="st1 st7 st9">bosbes</text>
	<text transform="matrix(1 0 0 1 193.0869 28.767)" class="st1 st7 st9">druif</text>
</g>
</svg>
